:SAMPLES-PER-SECOND 30
:FRAME-RANGE 1-1770
:FULLY-SPECIFIED
:DEGREES
830
root  27.8044 36.0149 -65.5782 1.14972 -21.0646 1.83324
RightUpLeg  -3.50023 -1.59321 -10.9802
RightLeg  38.2691 -3.50358 -3.23877
RightFoot  -36.2066 4.02721 19.2384
RightToes  6.35937e-011 1.2921e-014 -6.02303e-014
Spine  15.8577 -0.518437 3.9904
Spine1  1.35102 -0.323824 -0.634731
HEad  -18.2882 14.925 -11.5387
LeftShoulder1  1.60623 -0.959379 -29.9303
LeftArm  -4.19223 23.5824 -27.6461
LeftForeArm  8.65042 3.95829 -17.4813
LeftHand  0.333583 0.601872 -8.24681
RightShoulder  14.9097 26.6111 42.9149
RightArm  16.8257 26.1206 17.5976
RightForeArm  6.57043 23.7227 4.73458
RightHand  -0.461119 4.50484 -5.68999
LeftUpLeg  -40.3164 12.8121 4.41023
LeftLeg  31.7634 -6.98583 -4.30538
LeftFoot  -5.81551 0.982976 -19.4857
LeftToes  3.18074e-010 1.39432e-010 -7.71186e-011
831
root  27.7525 36.4751 -66.1087 1.1521 -19.9569 1.75562
RightUpLeg  -3.12086 -1.31282 -9.87153
RightLeg  36.1026 -5.35248 -4.44733
RightFoot  -34.0525 3.58441 18.8618
RightToes  6.35937e-011 1.2921e-014 -6.02303e-014
Spine  14.9667 -0.612453 4.64179
Spine1  1.0285 -0.275029 -0.747788
HEad  -15.3339 14.5532 -9.50136
LeftShoulder1  1.6296 -1.06427 -29.612
LeftArm  -2.85392 20.6154 -29.5915
LeftForeArm  13.089 0.228871 -17.0067
LeftHand  0.443474 -0.514087 -8.70964
RightShoulder  14.328 23.8715 45.5929
RightArm  18.6793 22.3356 19.032
RightForeArm  6.07796 26.1259 5.29173
RightHand  -0.476647 4.58727 -5.82804
LeftUpLeg  -38.4077 13.6559 1.99637
LeftLeg  34.495 -4.35722 -2.86421
LeftFoot  -5.53138 0.998477 -18.8777
LeftToes  3.18074e-010 1.39432e-010 -7.71186e-011
832
root  27.7299 37.0404 -66.4113 1.7113 -18.5751 1.58481
RightUpLeg  -2.03864 -2.14936 -9.146
RightLeg  31.9967 -6.63729 -4.70361
RightFoot  -31.3339 3.14181 18.8903
RightToes  6.35937e-011 1.2921e-014 -6.02303e-014
Spine  13.5109 -0.68606 5.11535
Spine1  0.352449 -0.309183 -0.569561
HEad  -11.9835 14.0981 -8.79329
LeftShoulder1  1.55849 -0.822915 -29.9608
LeftArm  3.59615 19.1763 -31.0452
LeftForeArm  10.1241 -7.77159 -15.1377
LeftHand  0.45492 -1.63566 -7.39168
RightShoulder  13.2057 20.4651 48.1433
RightArm  22.3376 17.2487 19.8128
RightForeArm  5.22481 27.8719 5.74115
RightHand  -0.433867 4.65825 -5.29814
LeftUpLeg  -36.3255 13.4502 0.105589
LeftLeg  37.0925 -1.54334 -0.890291
LeftFoot  -5.77092 0.817617 -16.0107
LeftToes  3.18074e-010 1.39432e-010 -7.71186e-011
833
root  27.7295 37.5808 -66.5831 2.84241 -17.6479 1.34349
RightUpLeg  -1.13681 -3.485 -8.71813
RightLeg  27.1738 -7.06113 -4.15817
RightFoot  -28.586 2.63478 18.5206
RightToes  6.35937e-011 1.2921e-014 -6.02303e-014
Spine  12.2125 -0.435774 5.36875
Spine1  -1.30321 -0.0794066 -0.296295
HEad  -8.71078 13.638 -8.62684
LeftShoulder1  1.47492 -0.546848 -30.3541
LeftArm  14.4681 18.7841 -32.399
LeftForeArm  1.36584 -16.9764 -9.73087
LeftHand  0.379451 -2.40619 -5.46783
RightShoulder  11.6651 16.7735 50.3358
RightArm  27.8242 12.1 19.6385
RightForeArm  5.64958 27.9702 5.74132
RightHand  -0.385077 4.63199 -4.74663
LeftUpLeg  -34.6059 14.0279 -1.35041
LeftLeg  39.3784 0.364907 0.693669
LeftFoot  -7.10719 0.614878 -15.4082
LeftToes  3.18074e-010 1.39432e-010 -7.71186e-011
834
root  27.7392 38.041 -66.7094 4.25073 -17.3604 1.10841
RightUpLeg  -0.572835 -5.14105 -8.42326
RightLeg  22.3018 -6.63142 -3.38011
RightFoot  -26.0096 2.18281 18.2018
RightToes  6.35937e-011 1.2921e-014 -6.02303e-014
Spine  11.0061 0.0177371 5.32778
Spine1  -2.92685 0.362333 -0.271025
HEad  -6.41833 13.2644 -8.37982
LeftShoulder1  1.39906 -0.297401 -30.7487
LeftArm  16.7641 18.2631 -32.6118
LeftForeArm  -0.956252 -23.6777 -5.11247
LeftHand  0.330012 -2.93764 -4.38574
RightShoulder  10.2116 13.7933 51.6651
RightArm  34.7656 7.54679 19.2415
RightForeArm  6.02932 25.3296 5.11499
RightHand  -0.440235 5.26326 -5.10028
LeftUpLeg  -33.3551 15.2004 -2.45086
LeftLeg  41.4528 1.85352 2.13623
LeftFoot  -8.49821 0.391281 -13.67
LeftToes  3.18074e-010 1.39432e-010 -7.71186e-011
835
root  27.7703 38.3795 -66.7734 5.53729 -16.9537 0.751938
RightUpLeg  0.221636 -7.97891 -8.20554
RightLeg  17.688 -5.10523 -2.55086
RightFoot  -23.7429 1.79644 17.8944
RightToes  6.35937e-011 1.2921e-014 -6.02303e-014
Spine  9.73574 0.176338 5.51019
Spine1  -3.62779 0.605367 -0.779342
HEad  -5.73468 12.7593 -8.364
LeftShoulder1  1.32664 -0.0812214 -30.9467
LeftArm  9.70356 16.6743 -31.6223
LeftForeArm  6.46059 -28.9358 -5.92352
LeftHand  0.325425 -3.27646 -4.12646
RightShoulder  9.18325 11.918 52.1132
RightArm  38.1402 3.84076 18.9432
RightForeArm  7.31486 20.0705 6.69338
RightHand  -0.498299 5.69213 -5.53234
LeftUpLeg  -32.2127 16.3656 -3.06574
LeftLeg  43.2523 3.34854 3.76114
LeftFoot  -10.8416 0.11458 -11.3924
LeftToes  3.18074e-010 1.39432e-010 -7.71186e-011
836
root  27.8304 38.616 -66.7948 6.78131 -15.9477 0.459671
RightUpLeg  1.18042 -9.31998 -8.18929
RightLeg  13.4261 -5.35432 -1.33467
RightFoot  -21.6482 1.44837 17.5721
RightToes  6.35937e-011 1.2921e-014 -6.02303e-014
Spine  8.05421 0.028792 5.51972
Spine1  -3.31454 0.525607 -1.39926
HEad  -5.99278 11.9615 -8.10321
LeftShoulder1  1.33078 -0.0655829 -31.2266
LeftArm  5.14688 13.9348 -30.1167
LeftForeArm  11.9495 -33.4175 -6.73811
LeftHand  0.337859 -3.43427 -4.20428
RightShoulder  8.45473 10.6842 52.1567
RightArm  22.5892 2.02697 17.9025
RightForeArm  21.7068 9.24634 14.2108
RightHand  -0.397758 5.75709 -4.45975
LeftUpLeg  -31.0082 17.0984 -3.41903
LeftLeg  43.8145 4.89916 5.41068
LeftFoot  -13.3843 -0.0947744 -9.78436
LeftToes  3.18074e-010 1.39432e-010 -7.71186e-011
837
root  27.8871 38.7719 -66.7487 7.67706 -14.599 0.29808
RightUpLeg  2.50647 -9.5829 -8.16117
RightLeg  9.53728 -6.87424 -0.308531
RightFoot  -19.8487 1.16952 17.4224
RightToes  6.35937e-011 1.2921e-014 -6.02303e-014
Spine  6.753 -0.197885 4.79371
Spine1  -2.9852 0.263934 -1.50213
HEad  -6.26111 11.0684 -7.51256
LeftShoulder1  1.36297 -0.123635 -31.5195
LeftArm  2.54717 10.6289 -28.3689
LeftForeArm  15.6707 -36.6182 -7.38881
LeftHand  0.305786 -3.29452 -3.85388
RightShoulder  7.91861 9.77619 52.1924
RightArm  10.3041 0.54849 16.097
RightForeArm  26.7087 -2.10846 16.8756
RightHand  -0.0683479 5.36572 -1.05134
LeftUpLeg  -29.092 17.7862 -3.52763
LeftLeg  42.5681 6.95222 7.17768
LeftFoot  -15.9153 -0.22361 -7.974
LeftToes  3.18074e-010 1.39432e-010 -7.71186e-011
838
root  27.9697 38.8572 -66.6092 8.04712 -13.2072 0.287094
RightUpLeg  4.16279 -9.75006 -8.32817
RightLeg  6.3583 -8.20042 0.534233
RightFoot  -18.5468 0.978564 17.4291
RightToes  6.35937e-011 1.2921e-014 -6.02303e-014
Spine  5.97944 -0.36789 3.59409
Spine1  -2.71197 0.041125 -1.44088
HEad  -6.42298 10.0884 -6.6201
LeftShoulder1  1.3657 -0.129726 -31.5318
LeftArm  1.10334 7.05865 -27.1943
LeftForeArm  17.7228 -38.3607 -7.76624
LeftHand  0.252205 -3.20189 -3.17812
RightShoulder  7.2865 8.7774 51.9433
RightArm  4.64907 -0.860086 14.1313
RightForeArm  25.2241 -5.60499 16.9061
RightHand  0.306392 4.45007 3.32505
LeftUpLeg  -25.6914 18.3229 -3.33303
LeftLeg  38.4126 8.95005 7.90237
LeftFoot  -16.9804 -0.245836 -7.04898
LeftToes  3.18074e-010 1.39432e-010 -7.71186e-011
839
root  28.0979 38.8773 -66.3746 8.03619 -12.0599 0.374481
RightUpLeg  5.57011 -9.71163 -8.61031
RightLeg  4.64037 -9.28786 0.848576
RightFoot  -18.0077 0.929308 17.9324
RightToes  6.35937e-011 1.2921e-014 -6.02303e-014
Spine  5.43836 -0.371151 2.35354
Spine1  -2.26131 0.047 -1.7367
HEad  -6.57925 8.87147 -5.39062
LeftShoulder1  1.37928 -0.184014 -31.3466
LeftArm  0.144485 3.56272 -26.4546
LeftForeArm  18.4413 -39.3858 -8.02888
LeftHand  0.191397 -3.14742 -2.37471
RightShoulder  6.43762 7.52121 51.1453
RightArm  -0.076386 -2.87878 12.1135
RightForeArm  27.8459 -6.20869 16.3768
RightHand  0.380881 3.24421 4.88148
LeftUpLeg  -20.4663 18.7313 -2.86069
LeftLeg  30.2355 9.49085 6.27081
LeftFoot  -16.4576 -0.279911 -8.4572
LeftToes  3.18074e-010 1.39432e-010 -7.71186e-011
840
root  28.2702 38.9147 -66.0529 7.94293 -10.698 1.0974
RightUpLeg  6.37882 -9.2342 -9.206
RightLeg  4.2733 -11.1957 0.337794
RightFoot  -17.6976 0.928265 18.7402
RightToes  6.35937e-011 1.2921e-014 -6.02303e-014
Spine  5.24381 -0.575406 -0.0324615
Spine1  -2.04046 -0.186563 -2.22145
HEad  -6.72969 7.78068 -3.83171
LeftShoulder1  1.38238 -0.212557 -31.142
LeftArm  -0.763602 0.664585 -25.9024
LeftForeArm  18.9178 -40.3907 -8.3095
LeftHand  0.177558 -3.189 -2.17248
RightShoulder  5.54503 6.22768 49.9339
RightArm  0.461625 -5.43102 10.442
RightForeArm  30.7728 -6.12266 16.2739
RightHand  0.38392 3.10905 5.01122
LeftUpLeg  -17.4629 18.7114 -3.77732
LeftLeg  26.3569 8.055 4.66268
LeftFoot  -19.6971 -0.419355 -7.34821
LeftToes  3.18074e-010 1.39432e-010 -7.71186e-011
841
root  28.4813 38.7787 -65.8196 7.6745 -8.39511 2.79941
RightUpLeg  3.87807 -10.1653 -10.445
RightLeg  11.0859 -12.4885 -2.55971
RightFoot  -19.1231 1.21826 19.655
RightToes  6.35937e-011 1.2921e-014 -6.02303e-014
Spine  5.99846 -1.03738 -4.41894
Spine1  -2.28366 -1.21242 -0.461155
HEad  -7.73118 6.78377 -2.48294
LeftShoulder1  1.42956 -0.285007 -31.6796
LeftArm  -1.28328 -2.76265 -25.3421
LeftForeArm  18.6449 -40.5284 -8.37077
LeftHand  0.127864 -3.1805 -1.50104
RightShoulder  4.35029 4.35645 48.5204
RightArm  5.12696 -6.8491 9.67131
RightForeArm  31.5848 -5.29483 16.7415
RightHand  0.336082 3.55557 4.10802
LeftUpLeg  -17.1144 16.1823 -5.7298
LeftLeg  26.238 8.33029 4.78699
LeftFoot  -18.7914 -0.301773 -6.35912
LeftToes  3.18074e-010 1.39432e-010 -7.71186e-011
842
root  28.7453 38.6671 -65.5681 7.07428 -6.75481 4.09074
RightUpLeg  0.0195055 -8.82271 -11.5288
RightLeg  21.4832 -14.8656 -6.55235
RightFoot  -18.3666 1.32217 23.2868
RightToes  6.35937e-011 1.2921e-014 -6.02303e-014
Spine  6.9684 -1.24636 -6.47171
Spine1  -1.86745 -1.51027 -1.31586
HEad  -9.00135 5.54192 -1.10388
LeftShoulder1  1.55765 -0.615547 -31.7663
LeftArm  -0.983001 -6.62845 -25.8753
LeftForeArm  17.8996 -39.6197 -8.13541
LeftHand  0.079577 -3.22127 -0.838712
RightShoulder  3.26803 2.63679 46.6612
RightArm  15.9701 -8.92411 10.4613
RightForeArm  24.1579 -3.07346 17.967
RightHand  0.265008 3.90385 3.04284
LeftUpLeg  -16.118 14.6865 -7.2491
LeftLeg  26.0457 8.11552 4.64477
LeftFoot  -19.1154 -0.286053 -5.89163
LeftToes  3.18074e-010 1.39432e-010 -7.71186e-011
